<?xml version="1.0" encoding="iso-8859-1"?>
<!-- Generator: Adobe Illustrator 19.0.0, SVG Export Plug-In . SVG Version: 6.00 Build 0)  -->
<svg version="1.1" id="Layer_1" xmlns="http://www.w3.org/2000/svg" xmlns:xlink="http://www.w3.org/1999/xlink" x="0px" y="0px"
	 viewBox="0 0 512.001 512.001" style="enable-background:new 0 0 512.001 512.001;" xml:space="preserve">
<path style="fill:#0F993E;" d="M495.302,511.998H376.879c-36.217,0-68.13-23.141-79.423-57.576L240.12,278.304
	c-1.087-3.359-1.087-6.968,0-10.326l83.477-256.442c2.239-6.881,8.652-11.532,15.881-11.532c7.229,0,13.641,4.652,15.881,11.522
	L511.183,490.13c1.652,5.087,0.771,10.652-2.37,14.978C505.672,509.434,500.649,511.998,495.302,511.998z"/>
<path style="fill:#167EE6;" d="M135.121,511.998H16.699c-5.348,0-10.369-2.566-13.511-6.891s-4.021-9.892-2.37-14.978
	L156.642,11.525c2.239-6.87,8.652-11.522,15.881-11.522h166.955c5.348,0,10.369,2.566,13.511,6.881
	c3.141,4.326,4.021,9.902,2.37,14.978L214.555,454.389C203.251,488.857,171.338,511.998,135.121,511.998z"/>
<path style="fill:#2860CC;" d="M339.478,0.003H256v327.072l99.357-305.214c1.652-5.077,0.771-10.652-2.37-14.978
	C349.847,2.568,344.825,0.003,339.478,0.003z"/>
<g>
</g>
<g>
</g>
<g>
</g>
<g>
</g>
<g>
</g>
<g>
</g>
<g>
</g>
<g>
</g>
<g>
</g>
<g>
</g>
<g>
</g>
<g>
</g>
<g>
</g>
<g>
</g>
<g>
</g>
</svg>
