<?xml version="1.0" encoding="iso-8859-1"?>
<!-- Generator: Adobe Illustrator 19.0.0, SVG Export Plug-In . SVG Version: 6.00 Build 0)  -->
<svg version="1.1" id="Layer_1" xmlns="http://www.w3.org/2000/svg" xmlns:xlink="http://www.w3.org/1999/xlink" x="0px" y="0px"
	 viewBox="0 0 512 512" style="enable-background:new 0 0 512 512;" xml:space="preserve">
<path style="fill:#E6F3FF;" d="M496.07,1.252c-6.233-2.56-13.356-1.113-18.142,3.673l-21.592,21.592L434.745,4.925
	c-6.567-6.567-17.029-6.567-23.595,0l-21.592,21.592L367.966,4.925c-6.567-6.567-17.029-6.567-23.595,0l-21.592,21.592
	L301.187,4.925c-6.567-6.567-17.029-6.567-23.595,0L256,26.517L234.408,4.925c-6.567-6.567-17.029-6.567-23.595,0l-22.594,22.594
	L166.627,5.927c-6.567-6.455-17.14-6.455-23.595,0l-20.59,20.59L100.85,4.925c-6.567-6.567-17.029-6.567-23.595,0L55.663,26.517
	L34.071,4.925C29.285,0.139,22.162-1.308,15.93,1.252C9.697,3.923,5.579,9.933,5.579,16.723v478.583
	c0,9.238,7.457,16.695,16.695,16.695h333.895c4.452,0,8.681-1.781,11.798-4.897l133.558-133.558
	c3.116-3.116,4.897-7.346,4.897-11.798V16.723C506.421,9.933,502.303,3.923,496.07,1.252z"/>
<path style="fill:#CFDBE6;" d="M356.168,512c4.452,0,8.681-1.781,11.799-4.897l133.558-133.558
	c3.116-3.116,4.896-7.346,4.896-11.798V16.723c0-6.789-4.118-12.799-10.35-15.47c-6.234-2.56-13.357-1.113-18.143,3.673
	l-21.591,21.592L434.747,4.925c-6.568-6.567-17.029-6.567-23.596,0L389.56,26.517L367.969,4.925c-6.568-6.567-17.029-6.567-23.596,0
	l-21.591,21.592L301.192,4.925c-6.568-6.567-17.029-6.567-23.596,0l-21.591,21.592V512H356.168z"/>
<path style="fill:#E6F3FF;" d="M356.168,345.053c-9.238,0-16.695,7.457-16.695,16.695V512h16.695c4.452,0,8.681-1.781,11.798-4.897
	l133.558-133.558c3.116-3.116,4.897-7.346,4.897-11.798v-16.695H356.168z"/>
<path style="fill:#A3B8CC;" d="M422.947,311.663H322.779c-9.217,0-16.695-7.478-16.695-16.695s7.478-16.695,16.695-16.695h100.168
	c9.217,0,16.695,7.478,16.695,16.695S432.164,311.663,422.947,311.663z"/>
<path style="fill:#7A51CC;" d="M222.61,478.611H55.663c-9.217,0-16.695-7.478-16.695-16.695V294.968
	c0-9.217,7.478-16.695,16.695-16.695H222.61c9.217,0,16.695,7.478,16.695,16.695v166.947
	C239.305,471.132,231.827,478.611,222.61,478.611z"/>
<path style="fill:#E6F3FF;" d="M139.137,445.221c-36.813,0-66.779-29.966-66.779-66.779s29.966-66.779,66.779-66.779
	c9.032,0,17.803,1.793,26.02,5.282c8.478,3.619,12.423,13.434,8.804,21.912c-3.619,8.445-13.401,12.423-21.912,8.804
	c-4.043-1.728-8.413-2.609-12.913-2.609c-18.423,0-33.389,14.966-33.389,33.389s14.966,33.389,33.389,33.389
	c12.325,0,23.118-6.717,28.922-16.695H155.83c-9.228,0-16.695-7.467-16.695-16.695s7.467-16.695,16.695-16.695h33.389
	c9.228,0,16.695,7.467,16.695,16.695C205.916,415.255,175.95,445.221,139.137,445.221z"/>
<path style="fill:#32BBFF;" d="M456.337,211.495H55.663c-9.217,0-16.695-7.478-16.695-16.695v-66.779
	c0-9.217,7.478-16.695,16.695-16.695h400.674c9.217,0,16.695,7.478,16.695,16.695V194.8
	C473.032,204.016,465.553,211.495,456.337,211.495z"/>
<path style="fill:#2C9FD9;" d="M456.337,111.326H256v100.168h200.337c9.217,0,16.695-7.478,16.695-16.695v-66.779
	C473.032,118.804,465.553,111.326,456.337,111.326z"/>
<g>
</g>
<g>
</g>
<g>
</g>
<g>
</g>
<g>
</g>
<g>
</g>
<g>
</g>
<g>
</g>
<g>
</g>
<g>
</g>
<g>
</g>
<g>
</g>
<g>
</g>
<g>
</g>
<g>
</g>
</svg>
