<?xml version="1.0" encoding="iso-8859-1"?>
<!-- Generator: Adobe Illustrator 19.0.0, SVG Export Plug-In . SVG Version: 6.00 Build 0)  -->
<svg version="1.1" id="Layer_1" xmlns="http://www.w3.org/2000/svg" xmlns:xlink="http://www.w3.org/1999/xlink" x="0px" y="0px"
	 viewBox="0 0 512 512" style="enable-background:new 0 0 512 512;" xml:space="preserve">
<path style="fill:#12B347;" d="M456.348,495.304c0,9.217-7.479,16.696-16.696,16.696H72.348c-9.217,0-16.696-7.479-16.696-16.696
	V16.696C55.652,7.479,63.131,0,72.348,0h233.739c4.424,0,8.674,1.761,11.804,4.892l133.565,133.565
	c3.131,3.13,4.892,7.379,4.892,11.804V495.304z"/>
<path style="fill:#0F993E;" d="M456.348,495.304V150.278c0-4.437-1.766-8.691-4.909-11.822L317.389,4.871
	C314.258,1.752,310.019,0,305.601,0H256v512h183.652C448.873,512,456.348,504.525,456.348,495.304z"/>
<path style="fill:#12B347;" d="M451.459,138.459L317.891,4.892C314.76,1.76,310.511,0,306.082,0h-16.691l0.001,150.261
	c0,9.22,7.475,16.696,16.696,16.696h150.26v-16.696C456.348,145.834,454.589,141.589,451.459,138.459z"/>
<path style="fill:#FFFFFF;" d="M372.87,211.478H139.13c-9.217,0-16.696,7.479-16.696,16.696v200.348
	c0,9.217,7.479,16.696,16.696,16.696H372.87c9.217,0,16.696-7.479,16.696-16.696V228.174
	C389.565,218.957,382.087,211.478,372.87,211.478z M155.826,311.652h66.783v33.391h-66.783V311.652z M256,311.652h100.174v33.391
	H256V311.652z M356.174,278.261H256V244.87h100.174V278.261z M222.609,244.87v33.391h-66.783V244.87H222.609z M155.826,378.435
	h66.783v33.391h-66.783V378.435z M256,411.826v-33.391h100.174v33.391H256z"/>
<path style="fill:#E6F3FF;" d="M372.87,211.478H256v33.391h100.174v33.391H256v33.391h100.174v33.391H256v33.391h100.174v33.391H256
	v33.391h116.87c9.22,0,16.696-7.475,16.696-16.696V228.174C389.565,218.953,382.09,211.478,372.87,211.478z"/>
<g>
</g>
<g>
</g>
<g>
</g>
<g>
</g>
<g>
</g>
<g>
</g>
<g>
</g>
<g>
</g>
<g>
</g>
<g>
</g>
<g>
</g>
<g>
</g>
<g>
</g>
<g>
</g>
<g>
</g>
</svg>
